<?xml version="1.0" encoding="UTF-8"?>
<svg id="Capa_2" data-name="Capa 2" xmlns="http://www.w3.org/2000/svg" viewBox="0 0 377.61 408.89">
  <g id="Capa_1-2" data-name="Capa 1">
    <g>
      <path d="M37.4,408.89c-46.15-7.07-46.27-36.87-18.39-67.49,12.76-14.01,27.79-26.74,40.71-40.7-38.94-46.61-38.09-116.25,1.22-162.49,2.12-2.49,10.2-9.49,11.14-11.22,2.01-3.7,3.35-12.98,5.67-18.29,2.87-6.58,12.81-22.75,19.35-25.37,10.13-4.06,14.84,4.16,21.34,10.03,23.62-14.39,48.99-27.13,75.05-36.6,30.54-11.1,63.53-19.41,96.22-14.36,1.39-35.64,43.19-55.42,71.45-32.72,31.82,25.57,14.47,77.05-25.94,78.23,5.13,31.97-2.81,64.66-13.55,94.63-9.47,26.43-22.33,51.95-36.65,76.02-.38,2.52,5.37,6.39,7.07,8.62,10,13.12-5.88,23.38-16.21,29.26-8.04,4.57-18.45,5.77-24.43,9.11-3.13,1.75-9.81,9.47-13.26,12.29-46.61,38.12-114.92,38.95-161.26.06l-44.72,44.67c-2.79,3.27-8.98,11.23-8.39,15.54.65,4.83,13.92,6.44,17.95,6.86,109.38.43,219.02-1.02,328.23.73,10.92,4.94,9.73,18.95-1.24,23.19H37.4ZM330.21,24.24c-25.34,3.99-20.26,44.31,7.6,39.54,24.35-4.17,18.87-43.71-7.6-39.54ZM267.33,242.02c14.54-26.59,28.28-54.01,36.95-83.23,7.08-23.85,18.66-72.9-8.18-88.05-24.87-14.04-71.34-.06-96.82,9.4-22.09,8.2-42.9,19.19-63.68,30.15l131.73,131.73ZM174.73,184.52l-71.86-71.46c-27.28,47.34,24.62,97.94,71.86,71.46ZM163.55,214.07c-32.41,6.95-66.18-8.26-82.37-36.99-2.76-4.9-4-9.7-6.21-14.55-.36-.79-.54-1.87-1.63-1.95-24.41,36.77-25.11,83.85.94,120.02,32.89,45.68,96.6,55.31,142.77,23.69.8-1.17-7.03-3.19-7.97-3.6-34.13-14.83-52.46-49.87-45.53-86.61ZM264.95,275.54l-71.85-71.85c-25.99,47.52,24.38,97.43,71.85,71.85Z"/>
      <path d="M214.48,104.85c14.91-1.15,17.54,21.55,3.71,23.73-18.18,2.87-19.15-22.54-3.71-23.73Z"/>
      <path d="M269.47,170.68c-11.73,11.76-28.57-6.9-16.9-17.3,11.62-10.36,27.55,6.62,16.9,17.3Z"/>
    </g>
  </g>
</svg>