<?xml version="1.0" encoding="UTF-8"?>
<svg id="Capa_2" data-name="Capa 2" xmlns="http://www.w3.org/2000/svg" viewBox="0 0 297.65 335.83">
  <g id="Capa_1-2" data-name="Capa 1">
    <g>
      <path d="M38.54,319.79C-8.1,303.02-7.78,221.29,15.87,186c7.11-10.61,15.66-14.51,19.87-27.33,2.02-6.17,2.88-12.87,4.89-19.07l-.51-1.36c-17.32-13.89-28.08-30.1-26.36-53.15.25-3.34,3.35-13.89,2.91-15.52-.39-1.47-8.27-11.12-10.03-14.75C-.07,40.99-6.58,6.95,13.3,1.54c14.11-3.83,31.71-.17,44.22,7,5.66,3.25,9.63,7.74,15.1,11,12.57-3.33,25.52-2.54,38.13-.03C123.44,6.26,141.97-1.09,160.41.17c13.39.91,20.22,6.12,21.37,19.84,1.59,18.87-4.65,35.76-16.5,50.16,9.59,27.75-2.11,51.68-23.83,68.93,2.4,8.06,3.21,16.8,6.7,24.51,3.26,7.2,7.86,9.5,12.62,15.1,24.21,28.5,25.55,70.72,15.02,105.15h12.38c4.16,0,14.23-5.12,17.63-7.85,16.68-13.42,8.55-28.93,17.39-44.77,18.43-33.04,70.66-22.45,74.09,14.84,1.03,11.15,1.01,28.15-15.03,24.73-13.6-2.9-5.6-21.18-11.63-29.56-7.98-11.08-26.97-6.23-28.76,7.13-2.02,15.05-1.24,21.7-10.7,34.98-16.75,23.48-42.12,25.86-69.08,24.62-5.48,4.83-11.57,9.32-18.53,11.82-2.31-6.81-10.71-9.15-17.25-8.23v-58.76c0-1.82-2.08-6.36-3.45-7.79-6.49-6.76-16.93-4.06-20.2,4.4.66,24.08-2.09,50.28-.35,74.13-7.48.09-15.02.09-22.5,0,1.74-23.85-1.01-50.05-.35-74.13-3.27-8.45-13.71-11.16-20.2-4.4-1.37,1.43-3.45,5.96-3.45,7.79v58.76c-6.39-.96-15.11,1.51-17.25,8.23ZM57.1,70.7c-8.61,1.4-11.76,11.02-7.46,18.31,1.55,2.63,13.36,14.2,15.98,15.48,10.6,5.18,21.62-4.68,16.72-15.19-1.22-2.62-12.69-14.21-15.36-16.11-3.33-2.37-5.68-3.18-9.88-2.5ZM120.09,70.7c-4.2.75-19.06,15.26-20.57,19.14-3.66,9.4,4.46,17.73,14.23,15.7,4.52-.94,17.76-14.29,19.68-18.54,4.09-9.07-3.86-18-13.33-16.3Z"/>
      <path d="M79.79,323.53c-.36,4.91-2.33,9.19-7.28,11.07-3.77,1.43-19.34,1.42-23.84.91-7.59-.86-12.41-8.55-10.12-15.72,13.36,4.8,27.31,3.58,41.25,3.74Z"/>
      <path d="M143.54,319.79c2.41,7.09-2.66,14.83-10.11,15.74-4.34.53-20.21.46-23.86-.92-4.95-1.88-6.92-6.16-7.28-11.07,13.94-.16,27.89,1.06,41.25-3.74Z"/>
    </g>
  </g>
</svg>