<?xml version="1.0" encoding="UTF-8"?>
<svg id="Capa_2" data-name="Capa 2" xmlns="http://www.w3.org/2000/svg" viewBox="0 0 347.95 301.94">
  <g id="Capa_1-2" data-name="Capa 1">
    <g>
      <path d="M63.84,217.91c15.59-17.01,38.53-37.42,55.98-53.15,22.5-20.28,44.1-30.07,75.01-20.99,22.67,6.66,57.48,43.61,75.4,61.1,21.73,21.21,37.08,40.57,19.49,72.03-26.23,46.92-76.23,11.88-115.51,11.99-34.95.09-76.52,29.04-106.88.38-19.96-18.84-22.26-50.89-3.48-71.37Z"/>
      <path d="M116.64.34c60.78-7.78,60.63,121.62-.11,114.48-46.78-5.5-48.97-108.2.11-114.48Z"/>
      <path d="M221.66.35c57.8-7.01,59.8,109.4,8.78,114.53-56.2,5.65-60.57-108.26-8.78-114.53Z"/>
      <path d="M59.56,172.38c-4.89,4.71-13.42,8.18-20.26,7.68C1.66,177.3-15.94,97.52,18.41,80.61c39.64-19.52,70.58,63.43,41.15,91.77Z"/>
      <path d="M313.15,78.34c26.77-3.88,36.05,25.05,34.67,46.67-1.55,24.4-22.04,65.91-52.26,52.28-34.7-15.66-17.7-93.83,17.59-98.95Z"/>
    </g>
  </g>
</svg>