<?xml version="1.0" encoding="UTF-8"?>
<svg id="Capa_2" data-name="Capa 2" xmlns="http://www.w3.org/2000/svg" viewBox="0 0 257.4 168.8">
  <g id="Capa_1-2" data-name="Capa 1">
    <g>
      <path d="M0,130.75v-15.08C2.9,79.51,16.63,3.18,63.07.11c21.27-1.41,45.23,11.73,65.82,11.6,25.8-.17,54.7-19.76,80.65-7.83,34.8,16,49.11,90.3,47.77,124.64-1.98,50.57-31.67,48-64.8,22.54-9.09-6.99-18.04-17.24-28.36-21.89-20.09-9.06-50.96-9.05-71.03,0-10.32,4.65-19.27,14.91-28.36,21.89C33.4,175.16,2.7,180.21,0,130.75ZM63.72,12.31C28.41,15.76,15.04,79.39,12.57,107.89c-1.25,14.37-4.7,54.16,19.48,48.13,22.6-5.63,37.24-29.87,58.41-38.58,22.03-9.07,53.47-9.29,75.5-.14,14.14,5.87,22.87,17.06,34.81,25.99,20.66,15.45,42.22,25.56,44.47-10.76,1.88-30.33-9.1-92.85-33.95-112.82-22.97-18.45-57.62,4.19-83.93,3.52-20.59-.52-43.55-12.89-63.65-10.93Z"/>
      <path d="M87.52,48.76c22.46,3.34,22.69,34.75-.06,37.28-2.45,22.29-33.92,22.62-36.92.46-23.02-3.66-23.02-34.54.15-37.73,2.49-22.14,34.19-22.13,36.83-.01ZM68.72,43.44c-9.49.51-4.3,11.51-8.14,15.48-3.32,3.42-8.68.71-12.5,3.08-3.47,2.15-3.99,6.73-1.34,9.71,4.02,4.51,9.66.23,13.59,4,3.59,3.46.63,8.56,3.08,12.5,2.09,3.37,6.39,3.84,9.63,1.76,5.1-3.29.97-9.94,4.35-13.74,3-3.37,8.78-.47,12.94-3.14s3.45-9.39-.84-11.45c-4.02-1.93-8.61,1-12.12-2.96-2.31-2.61-1.17-5.45-1.54-8.51-.45-3.73-3.08-6.94-7.1-6.72Z"/>
      <path d="M181.78,33.89c17.73-3.01,18.5,23.77.88,21.99-11.89-1.2-12.55-20.01-.88-21.99Z"/>
      <path d="M153.44,75.3c-10.57-11.13,7.89-27.47,17.41-14.15,8.04,11.26-8.12,23.93-17.41,14.15Z"/>
      <path d="M199.18,59.58c11.12-11.11,27.36,7.4,14.64,16.91-11.12,8.31-24.26-7.29-14.64-16.91Z"/>
      <path d="M176.56,98.41c-11.44-11.37,7.82-27.96,17.12-14.36,7.56,11.05-7.86,23.56-17.12,14.36Z"/>
    </g>
  </g>
</svg>